<svg id="Background" xmlns="http://www.w3.org/2000/svg" viewBox="0 0 137 137"><defs><style>.cls-1{fill:#808285;}.cls-2{fill:#fff;}</style></defs><title>Bil</title><rect class="cls-1" width="137" height="137" rx="12" ry="12"/><g id="l6y6Pr"><path class="cls-2" d="M136,431.07V385.48a0.55,0.55,0,0,0,.13-0.14c1.57-3.94,3.2-5,7.4-5q32.84,0,65.68,0a57.27,57.27,0,0,1,5.8.25c2.32,0.24,4.67.72,6.31,2.53a33.53,33.53,0,0,1,3.72,5c2.73,4.47,5.33,9,8,13.52a1.44,1.44,0,0,0,.66.62c5,1.74,10,3.45,14.93,5.18,2.87,1,5.75,2,6.79,5.34v18.31c-1.92,5.64-5.46,5.43-10.51,5.17a13.71,13.71,0,0,0-4.42-9,13.05,13.05,0,0,0-9.41-3.46,12.81,12.81,0,0,0-7.82,2.86,13.51,13.51,0,0,0-5.07,9.61h-45.7a13.45,13.45,0,0,0-26.84.05c-1.09,0-2.2,0-3.3,0a6.66,6.66,0,0,1-4.19-1.6A8.69,8.69,0,0,1,136,431.07Zm74.59-27.21H224.3c1.67,0,1.83-.3,1.11-1.75-2.28-4.57-4.56-9.15-6.79-13.75a2.36,2.36,0,0,0-2.35-1.55c-6.52,0-13,0-19.55,0-1.27,0-1.47.21-1.47,1.53q0,7,0,14c0,1.32.17,1.49,1.48,1.49h13.83Zm38.27,21.84h3a2.23,2.23,0,0,0,2.48-2.48c0-1.4,0-2.79,0-4.19a2.16,2.16,0,0,0-2.34-2.4c-2,0-4.06,0-6.09,0a2.18,2.18,0,0,0-2.4,2.27c-0.07,1.49-.07,3,0,4.47a2.22,2.22,0,0,0,2.46,2.32C246.87,425.72,247.86,425.7,248.84,425.7Z" transform="translate(-125.54 -340.96)"/><path class="cls-2" d="M231.63,449.41a12.1,12.1,0,1,1,12.06-12.1A12.14,12.14,0,0,1,231.63,449.41Zm8.17-12.08a8.25,8.25,0,1,0-8.22,8.25A8.25,8.25,0,0,0,239.8,437.33Z" transform="translate(-125.54 -340.96)"/><path class="cls-2" d="M158.87,449.42A12.1,12.1,0,1,1,171,437.3,12.15,12.15,0,0,1,158.87,449.42Zm-8.22-12.12a8.25,8.25,0,0,0,8.19,8.29,8.26,8.26,0,1,0,.07-16.52A8.22,8.22,0,0,0,150.65,437.29Z" transform="translate(-125.54 -340.96)"/></g></svg>