<svg id="Layer_1" data-name="Layer 1" xmlns="http://www.w3.org/2000/svg" viewBox="0 0 173.33 173.33"><defs><style>.cls-1{fill:#878787;}.cls-2{fill:#fff;}</style></defs><title>Fugepinde</title><rect class="cls-1" width="173.33" height="173.33" rx="12" ry="12"/><path class="cls-2" d="M106.57,236.27c5.83-4.14,12.55-4.7,19.41-4.88,7.73-.2,15.51-0.21,23.15-1.12,11-1.3,21.84-3.58,30.62-11.33a122.32,122.32,0,0,0,10-10.66c7.09-8,14.67-15.22,23.86-20.11,7.63-4.05,15.95-5.69,24.35-7a51.38,51.38,0,0,1,20.17.57c3.71,0.87,5.44,4.25,7.25,7.49a2.56,2.56,0,0,1,.13,1.76c-1.69,5.14-3.6,10.29-8.9,11.57-3.83.93-7.89,1.75-11.82,1.34-9.86-1-18.37,2.25-26.3,7.55a141.42,141.42,0,0,0-12.94,10.08,54.58,54.58,0,0,1-20.67,11.09,25.45,25.45,0,0,0-2.39.94l-5,1.34c-0.91.14-1.83,0.24-2.73,0.44-7.38,1.59-14.66,3.82-22.16,4.66a173.28,173.28,0,0,1-38.8.13,11.61,11.61,0,0,1-7-2.93Z" transform="translate(-98.01 -167.83)"/><path class="cls-2" d="M106.74,253.14c6.31-2,12.55-1,18.83.26,7.08,1.47,14.15,3.1,21.31,4,10.31,1.3,20.72,1.8,30.59-2.44a119.38,119.38,0,0,0,11.68-6.26c8.39-4.77,17-8.86,26.59-10.75,7.92-1.57,15.88-1.1,23.85-.39a54.1,54.1,0,0,1,18.19,4.7c3.16,1.47,3.91,4.48,4.76,7.41a1.85,1.85,0,0,1-.31,1.41c-2.79,3.68-5.79,7.32-10.91,7.2a38.26,38.26,0,0,1-11.07-1.44c-8.71-2.89-17.25-2.11-25.74.38a145.22,145.22,0,0,0-14.22,5.19,58.11,58.11,0,0,1-21.49,4.35c-0.8,0-1.6.15-2.4,0.24h-4.87c-0.86-.08-1.73-0.2-2.59-0.23-7.1-.31-14.26-0.1-21.27-1a183.9,183.9,0,0,1-35.29-8.08,10.86,10.86,0,0,1-5.64-3.78v-0.75Z" transform="translate(-98.01 -167.83)"/><path class="cls-2" d="M106.93,271.15c6.15,0.41,11.48,3,16.78,5.88,6,3.22,11.88,6.57,18.06,9.39,8.9,4.07,18.08,7.58,28,7.43,4.05-.06,8-0.65,12-1.1,8.69-1,17.46-1.41,26.46.07,7.47,1.23,14.48,4,21.42,6.91a59.79,59.79,0,0,1,15.1,9c2.46,2,2.38,4.49,2.41,6.91a1.25,1.25,0,0,1-.63,1c-3.41,1.88-7,3.67-11.55,2a43.25,43.25,0,0,1-9.54-4.4c-7.07-4.76-14.9-6.77-23.11-7.49-4.68-.41-9.36-0.46-14-0.46A64.92,64.92,0,0,1,168,303c-0.72-.23-1.47-0.37-2.21-0.55L161.42,301c-0.75-.32-1.49-0.67-2.26-1-6.27-2.37-12.73-4.37-18.77-7.17a204.82,204.82,0,0,1-29.54-16.63,10.57,10.57,0,0,1-4.11-4.5Z" transform="translate(-98.01 -167.83)"/></svg>