<svg id="Layer_1" data-name="Layer 1" xmlns="http://www.w3.org/2000/svg" viewBox="0 0 137 137"><defs><style>.cls-1{fill:#878787;}.cls-2{fill:#fff;}</style></defs><title>FugePistol</title><rect class="cls-1" width="137" height="137" rx="12" ry="12"/><rect class="cls-2" x="285.17" y="417.87" width="92.74" height="20.24" rx="2" ry="2" transform="translate(137.78 -474.52) rotate(45)"/><rect class="cls-2" x="335.48" y="454.65" width="50.4" height="4.96" transform="translate(166.92 -486.59) rotate(45)"/><rect class="cls-2" x="374.98" y="470.61" width="7.02" height="8.67" rx="0.85" ry="0.85" transform="translate(184.74 -493.97) rotate(45)"/><polygon class="cls-2" points="19.61 13.45 63.18 70.46 77.49 56.15 20.48 12.57 19.61 13.45"/><rect class="cls-1" x="298.08" y="419.53" width="81.72" height="3.1" transform="translate(135.06 -481.78) rotate(45)"/><rect class="cls-1" x="287.56" y="424.67" width="55.77" height="3.1" transform="translate(131.81 -463.66) rotate(45)"/><rect class="cls-2" x="337.39" y="452.17" width="8.78" height="31.29" rx="4.39" ry="4.39" transform="translate(98.88 -476.68) rotate(38.04)"/><rect class="cls-2" x="324.74" y="455.2" width="26.16" height="4.82" rx="2.41" ry="2.41" transform="translate(-294.62 -339.42) rotate(-4.21)"/></svg>