<svg id="Layer_1" data-name="Layer 1" xmlns="http://www.w3.org/2000/svg" viewBox="0 0 137 137"><defs><style>.cls-1{fill:#878787;}.cls-2{fill:#fff;}</style></defs><title>Hammer</title><rect class="cls-1" width="137" height="137" rx="12" ry="12"/><path class="cls-2" d="M355.89,431.76l-11.05,11c-2.68,2.67-5.17,2.68-7.84,0s-5.07-5.15-7.69-7.64a3.25,3.25,0,0,1-.89-3.54,13.22,13.22,0,0,0,.45-3.4,6.07,6.07,0,0,0-2-4.33c-1.71-1.65-3.36-3.37-5.17-5.2l-8.36,8.77-17-16.95c1.45-1.34,3-2.73,4.48-4.14,2.33-2.21,2.58-4.9,1.63-7.79-1.2-3.66-3.51-6.64-5.93-9.54-8.44-10.1-19.55-16-31.8-20-0.64-.21-1.26-0.47-1.89-0.7h2.38c0.39,0.06.78,0.14,1.17,0.17,7.05,0.44,14.11.76,21.15,1.33a91.15,91.15,0,0,1,17.8,3,20.9,20.9,0,0,1,10.07,5.77c3.23,3.5,6.74,6.74,10.11,10.11,3.21,3.2,6.42,6.38,9.6,9.61a4.67,4.67,0,0,1,0,7l-0.68.74c1.92,2,3.71,4,5.7,5.85a5.5,5.5,0,0,0,3,1.2,11.89,11.89,0,0,0,3.86-.38,3.09,3.09,0,0,1,3.33.89c1,1.08,2.06,2.1,3.12,3.12,0.76,0.73,1.56,1.42,2.35,2.12v12.88Z" transform="translate(-229.17 -357.5)"/><path class="cls-2" d="M238.56,469.92a9.26,9.26,0,0,1,2.68-3.85q23.95-23.92,47.87-47.86a8.76,8.76,0,0,0,.8-1.05L306.75,434a6.13,6.13,0,0,0-.86.63l-48.54,48.53c-2.89,2.89-5.29,2.87-8.2,0-2.64-2.64-5.26-5.3-7.93-7.92a9,9,0,0,1-2.66-3.86v-1.43Z" transform="translate(-229.17 -357.5)"/></svg>