<svg id="Layer_1" data-name="Layer 1" xmlns="http://www.w3.org/2000/svg" viewBox="0 0 179.89 144.29"><defs><style>.cls-1{fill:#fff;}</style></defs><title>kurv</title><path class="cls-1" d="M335.39,468.66H297.11c-0.32,3.87-.13,7.72-1,11.29a18.72,18.72,0,0,1-17.45,14,19.46,19.46,0,0,1-19.26-12.36c-3-7.71-1-16.65,5.58-21.68,3.28-2.49,3.19-4.51,1.9-7.85q-16.4-42.33-32.47-84.79c-1.26-3.33-2.84-4.67-6.42-4.38a118.33,118.33,0,0,1-12,0c-4.13-.08-6.57-2.28-6.9-6.37-0.31-3.82,2.61-6.65,7-6.74,6.66-.14,13.33.06,20-0.09,4.09-.09,6.55,1.73,7.91,5.48,1.7,4.69,3.75,9.27,5.21,14,1.08,3.49,3,4.41,6.52,4.4,40.65-.12,81.3-0.08,122-0.08,1.5,0,3-.07,4.5,0,5.21,0.39,7.88,3.92,6.35,8.93-5.88,19.24-11.92,38.43-17.9,57.65-1.48,4.77-5.17,5.46-9.48,5.45q-38.23-.09-76.47,0H279.2C281,455,281,455,289.56,455q32,0,64,0c8,0,14.24,3.29,18.07,10.4,3.52,6.53,3.21,13.15-.67,19.48a19.44,19.44,0,0,1-35.91-10C335,472.9,335.25,470.94,335.39,468.66ZM256.15,387c2.31,6.08,4.53,11.43,6.36,16.91,0.92,2.76,2.48,3.46,5.16,3.4,6.31-.15,12.62,0,18.93,0H295L293.23,387H256.15Zm116.94,0.29H338.56l-1.44,20c9.46,0,18.27.1,27.08-.12a4.73,4.73,0,0,0,3.47-2.54C369.66,399,371.26,393.24,373.08,387.3Zm-41.19-.15H300.07c0.43,5.92.65,11.55,1.38,17.11,0.15,1.13,2.2,2.82,3.42,2.87,7.3,0.27,14.62,0,21.92.19,2.83,0.06,3.81-1.11,4-3.74C331,398.28,331.48,393,331.9,387.15Zm-2.1,27.11H302.13l1.46,17.65h24.76Zm-32.91,17.87-1.53-17.87H266.54c2.19,5.71,4.13,11,6.28,16.13A3.44,3.44,0,0,0,275.4,432C282.34,432.19,289.29,432.13,296.89,432.13Zm38.17,0c7.73,0,14.69.06,21.66-.06,1,0,2.54-.69,2.79-1.42,1.85-5.38,3.43-10.84,5.17-16.52H336.57Zm19.19,36.31c-3.68.37-5.71,2.5-5.94,6.09a6.19,6.19,0,0,0,6.38,6.19c3.62-.33,5.71-2.54,5.94-6.13C360.85,471.18,357.73,468.33,354.25,468.44Zm-70.5,5.9c-0.45-3.29-2.23-5.61-5.95-5.88a6.13,6.13,0,1,0-.53,12.24C280.55,481,283.73,477.9,283.75,474.35Z" transform="translate(-209.05 -349.74)"/></svg>